<svg width="670" height="423" viewBox="0 0 670 423" fill="none" xmlns="http://www.w3.org/2000/svg">
<path d="M669.348 394.061C669.348 378.067 594.988 365.227 503.242 365.227C411.586 365.227 337.226 378.067 337.226 394.061C337.226 410.054 411.586 422.894 503.331 422.894C594.988 422.894 669.348 410.054 669.348 394.061Z" fill="#225D72"/>
<path d="M300.543 394.261C300.543 378.32 233.384 365.522 150.522 365.522C67.7403 365.522 0.581055 378.32 0.581055 394.261C0.581055 410.202 67.7403 423 150.602 423C233.384 423 300.543 410.202 300.543 394.261Z" fill="url(#paint0_linear)"/>
<path d="M146.981 132.181C146.981 133.913 145.634 135.26 143.903 135.26H143.133C141.402 135.26 140.055 133.913 140.055 132.181V125.447C140.055 123.716 141.402 122.369 143.133 122.369H143.903C145.634 122.369 146.981 123.716 146.981 125.447V132.181Z" fill="white"/>
<path d="M164.294 108.9C164.294 118.328 154.868 126.024 143.326 126.024C131.783 126.024 122.357 118.328 122.357 108.9C122.357 99.4725 131.783 91.7764 143.326 91.7764C154.868 91.7764 164.294 99.4725 164.294 108.9Z" fill="#A8ADA9"/>
<path d="M171.603 147.573C170.257 141.609 158.138 136.799 143.133 136.799C128.128 136.799 116.201 141.417 114.662 147.573H171.603Z" fill="#090B20"/>
<path d="M164.293 137.954C164.293 139.301 163.139 140.455 161.793 140.455H124.473C123.127 140.455 121.973 139.301 121.973 137.954C121.973 136.607 123.127 135.453 124.473 135.453H161.6C163.139 135.26 164.293 136.415 164.293 137.954Z" fill="#252932"/>
<path d="M150.635 132.951C150.635 134.298 149.674 135.26 148.327 135.26H138.709C137.362 135.26 136.4 134.298 136.4 132.951C136.4 131.604 137.362 130.642 138.709 130.642H148.327C149.481 130.642 150.635 131.797 150.635 132.951Z" fill="#090B20"/>
<path d="M146.98 122.369C146.98 122.946 146.403 123.523 145.826 123.523H141.787C141.209 123.523 140.632 122.946 140.632 122.369C140.632 121.792 141.209 121.214 141.787 121.214H145.826C146.596 121.407 146.98 121.792 146.98 122.369Z" fill="#42A0AF"/>
<path d="M177.759 86.0044C177.759 104.86 162.562 120.06 143.71 120.06C136.016 120.06 128.898 117.559 123.319 113.326C115.047 107.169 109.661 97.1638 109.661 86.0044C109.661 84.85 109.661 83.6956 109.853 82.5412C111.392 65.4172 126.012 51.949 143.71 51.949C162.562 51.949 177.759 67.3413 177.759 86.0044Z" fill="white"/>
<path d="M161.6 87.9287C161.6 97.7413 153.521 105.822 143.71 105.822C133.899 105.822 125.82 97.7413 125.82 87.9287C125.82 78.1161 133.899 70.0352 143.71 70.0352C153.521 70.0352 161.6 78.1161 161.6 87.9287Z" fill="#A8ADA9"/>
<path d="M157.176 87.9285C157.176 95.4322 151.02 101.589 143.518 101.589C136.015 101.589 129.86 95.4322 129.86 87.9285C129.86 80.4247 136.015 74.2678 143.518 74.2678C151.212 74.2678 157.176 80.4247 157.176 87.9285Z" fill="#0FC2E8"/>
<path d="M153.906 87.9284C153.906 93.5081 149.289 98.1258 143.71 98.1258C138.131 98.1258 133.515 93.5081 133.515 87.9284C133.515 82.3486 138.131 77.731 143.71 77.731C149.289 77.731 153.906 82.3486 153.906 87.9284Z" fill="#A8ADA9"/>
<path d="M128.513 66.3792C128.513 68.1109 127.167 69.4577 125.435 69.4577C123.704 69.4577 122.357 68.1109 122.357 66.3792C122.357 64.6476 123.704 63.3008 125.435 63.3008C127.167 63.3008 128.513 64.6476 128.513 66.3792Z" fill="#FFCB25"/>
<path d="M127.551 66.3791C127.551 67.5336 126.589 68.4956 125.435 68.4956C124.281 68.4956 123.319 67.5336 123.319 66.3791C123.319 65.2247 124.281 64.2627 125.435 64.2627C126.589 64.2627 127.551 65.2247 127.551 66.3791Z" fill="#F91737"/>
<path d="M150.058 87.9284C150.058 91.3917 147.173 94.2777 143.71 94.2777C140.247 94.2777 137.362 91.3917 137.362 87.9284C137.362 84.4652 140.247 81.5791 143.71 81.5791C147.173 81.5791 150.058 84.4652 150.058 87.9284Z" fill="#090B20"/>
<path d="M150.058 82.7337C150.058 84.0805 148.904 85.2349 147.558 85.2349C146.211 85.2349 145.057 84.0805 145.057 82.7337C145.057 81.3868 146.211 80.2324 147.558 80.2324C148.904 80.4248 150.058 81.3868 150.058 82.7337Z" fill="white"/>
<path d="M123.127 113.326C114.855 107.169 109.469 97.1641 109.469 86.0047C109.469 84.8503 109.469 83.6959 109.661 82.5415C115.047 81.387 121.011 89.0832 123.127 99.473C124.281 104.668 124.281 109.67 123.127 113.326Z" fill="#090B20"/>
<path d="M164.101 113.326C172.373 107.169 177.759 97.1641 177.759 86.0047C177.759 84.8503 177.759 83.6959 177.567 82.5415C172.181 81.387 166.217 89.0832 164.101 99.473C162.947 104.668 162.947 109.67 164.101 113.326Z" fill="#090B20"/>
<path d="M138.448 319.69L91.005 327.569L91.6982 331.745L139.141 323.866L138.448 319.69Z" fill="#252932"/>
<path d="M156.759 319.556L156.065 323.731L203.508 331.61L204.201 327.435L156.759 319.556Z" fill="#252932"/>
<path d="M152.944 198.176H142.171V364.028H152.944V198.176Z" fill="#7A7C82"/>
<path d="M144.672 198.176H142.171V364.028H144.672V198.176Z" fill="white"/>
<path d="M148.904 198.176H146.403V364.028H148.904V198.176Z" fill="white"/>
<path d="M152.944 198.176H149.866V364.028H152.944V198.176Z" fill="#252932"/>
<path d="M154.867 359.795H140.247V377.688H154.867V359.795Z" fill="#7A7C82"/>
<path d="M154.867 359.795H150.251V377.688H154.867V359.795Z" fill="#090B20"/>
<path d="M153.329 377.688H141.786V379.612H153.329V377.688Z" fill="#2B2425"/>
<path d="M153.329 377.688H141.786V378.65H153.329V377.688Z" fill="#252932"/>
<path d="M153.329 377.688H150.251V379.612H153.329V377.688Z" fill="#0D101C"/>
<path d="M154.867 386.539C154.867 390.58 151.597 393.85 147.557 393.85C143.518 393.85 140.247 390.58 140.247 386.539C140.247 382.499 143.518 379.228 147.557 379.228C151.597 379.228 154.867 382.499 154.867 386.539Z" fill="#FFCB25"/>
<path d="M149.289 379.42C150.828 380.767 151.982 382.691 151.982 385C151.982 389.04 148.712 392.311 144.672 392.311C144.095 392.311 143.518 392.311 142.941 392.119C144.287 393.273 145.826 393.85 147.558 393.85C151.597 393.85 154.868 390.58 154.868 386.539C154.868 383.076 152.367 380.19 149.289 379.42Z" fill="#252932"/>
<path d="M65.9935 364.028L75.9967 368.261L142.748 213.376L135.054 210.105C133.707 209.528 132.361 210.105 131.783 211.452L65.9935 364.028Z" fill="#D4D1CA"/>
<path d="M65.9935 364.028L68.3019 364.99L135.054 210.105C133.707 209.528 132.361 210.105 131.783 211.452L65.9935 364.028Z" fill="#E3E2DB"/>
<path d="M136.679 210.651L69.8378 365.57L72.1337 366.561L138.975 211.642L136.679 210.651Z" fill="#E3E2DB"/>
<path d="M139.881 212.13L73.0392 367.065L75.8653 368.285L142.707 213.349L139.881 212.13Z" fill="#BEBBB2"/>
<path d="M65.9935 364.028L75.9967 368.261L142.748 213.376L135.054 210.105C133.707 209.528 132.361 210.105 131.783 211.452L65.9935 364.028Z" fill="#7A7C82"/>
<path d="M65.9935 364.028L68.3019 364.99L135.054 210.105C133.707 209.528 132.361 210.105 131.783 211.452L65.9935 364.028Z" fill="white"/>
<path d="M136.679 210.651L69.8378 365.57L72.1337 366.561L138.975 211.642L136.679 210.651Z" fill="white"/>
<path d="M139.881 212.13L73.0392 367.065L75.8653 368.285L142.707 213.349L139.881 212.13Z" fill="#252932"/>
<path d="M65.5866 359.077L58.5002 375.507L71.9243 381.299L79.0106 364.869L65.5866 359.077Z" fill="#7A7C82"/>
<path d="M74.7551 363.001L67.6705 379.432L71.9102 381.261L78.9947 364.829L74.7551 363.001Z" fill="#090B20"/>
<path d="M59.873 376.094L59.1108 377.861L69.7088 382.435L70.4709 380.668L59.873 376.094Z" fill="#2B2425"/>
<path d="M59.9055 376.2L59.5244 377.084L70.1224 381.657L70.5034 380.774L59.9055 376.2Z" fill="#252932"/>
<path d="M67.6832 379.516L66.921 381.282L69.7471 382.502L70.5093 380.736L67.6832 379.516Z" fill="#0D101C"/>
<path d="M68.4942 389.425C66.9552 393.081 62.5308 394.813 58.8758 393.273C55.2208 391.734 53.4895 387.309 55.0284 383.653C56.5674 379.998 60.9918 378.266 64.6468 379.805C68.3018 381.344 70.0331 385.577 68.4942 389.425Z" fill="#FFCB25"/>
<path d="M65.9936 380.575C66.9554 382.499 67.1478 384.615 66.1859 386.732C64.647 390.387 60.2225 392.119 56.5675 390.58C55.9904 390.387 55.6057 390.003 55.2209 389.81C55.9904 391.349 57.1446 392.504 58.8759 393.273C62.5309 394.813 66.763 393.081 68.4944 389.425C69.8409 386.154 68.6867 382.499 65.9936 380.575Z" fill="#252932"/>
<path d="M162.41 209.085L152.519 213.354L219.36 368.289L229.252 364.02L162.41 209.085Z" fill="#7A7C82"/>
<path d="M162.3 209.029L160.004 210.02L226.845 364.939L229.141 363.948L162.3 209.029Z" fill="#E3E2DB"/>
<path d="M158.473 210.777L156.177 211.769L223.07 366.67L225.365 365.678L158.473 210.777Z" fill="#E3E2DB"/>
<path d="M155.22 212.196L152.394 213.416L219.235 368.351L222.062 367.131L155.22 212.196Z" fill="#252932"/>
<path d="M229.638 359.128L216.214 364.92L223.301 381.35L236.725 375.558L229.638 359.128Z" fill="#7A7C82"/>
<path d="M85.2404 314.305L78.1541 330.735L91.5781 336.527L98.6644 320.097L85.2404 314.305Z" fill="#090B20"/>
<path d="M94.5817 318.476L87.4972 334.906L91.3831 336.582L98.4676 320.152L94.5817 318.476Z" fill="#090B20"/>
<path d="M209.787 314.333L196.363 320.125L203.449 336.555L216.873 330.763L209.787 314.333Z" fill="#090B20"/>
<path d="M209.836 314.41L205.597 316.238L212.679 332.67L216.919 330.842L209.836 314.41Z" fill="#090B20"/>
<path d="M229.685 359.223L225.445 361.052L232.53 377.483L236.77 375.655L229.685 359.223Z" fill="#090B20"/>
<path d="M235.182 376.089L224.584 380.663L225.346 382.429L235.944 377.855L235.182 376.089Z" fill="#2B2425"/>
<path d="M235.17 376.05L224.572 380.624L224.953 381.507L235.551 376.933L235.17 376.05Z" fill="#252932"/>
<path d="M235.124 376.052L232.298 377.272L233.06 379.038L235.886 377.819L235.124 376.052Z" fill="#0D101C"/>
<path d="M226.813 389.425C228.352 393.081 232.777 394.813 236.432 393.273C240.087 391.734 241.818 387.309 240.279 383.653C238.74 379.998 234.316 378.266 230.661 379.805C226.813 381.344 225.082 385.577 226.813 389.425Z" fill="#FFCB25"/>
<path d="M240.086 383.653C239.317 381.921 238.163 380.767 236.624 379.997C237.009 380.575 237.393 380.959 237.586 381.537C239.125 385.192 237.393 389.425 233.738 391.157C231.622 392.119 229.506 391.926 227.583 390.964C229.506 393.466 233.161 394.428 236.239 393.081C239.894 391.542 241.625 387.309 240.086 383.653Z" fill="#252932"/>
<path d="M134.861 236.657L121.203 230.692L130.629 209.143C131.206 207.796 132.745 207.219 133.899 207.796L145.249 212.606L134.861 236.657Z" fill="#7A7C82"/>
<path d="M136.847 208.977L126.422 232.977L134.891 236.657L145.316 212.657L136.847 208.977Z" fill="#090B20"/>
<path d="M160.254 236.657L173.912 230.692L164.486 209.143C163.909 207.796 162.37 207.219 161.216 207.796L149.866 212.606L160.254 236.657Z" fill="#090B20"/>
<path d="M155.028 208.933L140.216 208.969L140.28 235.136L155.093 235.1L155.028 208.933Z" fill="#090B20"/>
<path d="M155.06 243.198H140.055L137.362 232.424V221.649H157.753V232.424L155.06 243.198Z" fill="#090B20"/>
<path d="M155.06 242.429H140.055V247.239H155.06V242.429Z" fill="#7A7C82"/>
<path d="M154.868 247.239H140.055V324.008H154.868V247.239Z" fill="#252932"/>
<path d="M142.941 247.239H140.055V324.008H142.941V247.239Z" fill="white"/>
<path d="M146.788 247.239H145.442V324.008H146.788V247.239Z" fill="#7A7C82"/>
<path d="M155.06 249.163H139.863C138.901 249.163 138.132 248.393 138.132 247.431C138.132 246.469 138.901 245.699 139.863 245.699H155.06C156.022 245.699 156.791 246.469 156.791 247.431C156.984 248.201 156.022 249.163 155.06 249.163Z" fill="#090B20"/>
<path d="M157.176 314.965H137.554V327.471H157.176V314.965Z" fill="#090B20"/>
<path d="M140.247 314.965H137.554V327.471H140.247V314.965Z" fill="#7A7C82"/>
<path d="M144.287 314.965H142.556V327.471H144.287V314.965Z" fill="#7A7C82"/>
<path d="M147.173 314.965H146.019V327.471H147.173V314.965Z" fill="white"/>
<path d="M154.29 195.29H140.632C137.939 195.29 135.631 197.406 135.631 200.292V210.682H159.1V200.292C159.292 197.599 157.176 195.29 154.29 195.29Z" fill="#0FC2E8"/>
<path d="M154.29 195.29H147.942C150.635 195.29 152.944 197.406 152.944 200.292V210.682H159.292V200.292C159.292 197.599 157.176 195.29 154.29 195.29Z" fill="#1B4D5F"/>
<path d="M152.559 177.396H142.748V195.29H152.559V177.396Z" fill="#7A7C82"/>
<path d="M152.559 177.396H148.904V195.29H152.559V177.396Z" fill="#252932"/>
<path d="M160.254 149.883H124.473V152.192H160.254V149.883Z" fill="#181314"/>
<path d="M161.6 180.667H142.748C137.747 180.667 133.899 176.627 133.899 171.817V160.85C133.899 155.847 137.939 151.999 142.748 151.999H161.6C166.602 151.999 170.449 156.039 170.449 160.85V171.817C170.449 176.627 166.602 180.667 161.6 180.667Z" fill="#1B4D5F"/>
<path d="M141.786 180.667H122.934C117.933 180.667 114.085 176.627 114.085 171.817V160.85C114.085 155.847 118.125 151.999 122.934 151.999H141.786C146.788 151.999 150.635 156.039 150.635 160.85V171.817C150.635 176.627 146.596 180.667 141.786 180.667Z" fill="#0FC2E8"/>
<path d="M164.871 179.128C164.871 183.361 161.408 186.824 157.176 186.824C152.944 186.824 149.481 183.361 149.481 179.128C149.481 174.895 152.944 171.432 157.176 171.432C161.408 171.432 164.871 174.895 164.871 179.128Z" fill="white"/>
<path d="M166.217 179.128C166.217 183.361 162.754 186.824 158.522 186.824C154.29 186.824 150.828 183.361 150.828 179.128C150.828 174.895 154.29 171.432 158.522 171.432C162.754 171.432 166.217 174.895 166.217 179.128Z" fill="#7A7C82"/>
<path d="M234.7 169.315V161.234C236.816 161.234 238.74 162.966 238.74 165.275V165.467C238.548 167.584 236.816 169.315 234.7 169.315Z" fill="#1B4D5F"/>
<path d="M166.025 147.574H118.702V150.46H166.025V147.574Z" fill="#252932"/>
<path d="M145.249 147.574H118.702V150.46H145.249V147.574Z" fill="white"/>
<path d="M199.689 167.968H168.526C166.987 167.968 165.833 166.814 165.833 165.275C165.833 163.735 166.987 162.581 168.526 162.581H199.689V167.968Z" fill="white"/>
<path d="M199.497 166.044H170.449V167.776H199.497V166.044Z" fill="#7A7C82"/>
<path d="M209.308 159.31L200.459 160.464C199.689 160.657 198.92 161.234 198.92 162.196V168.161C198.92 169.123 199.497 169.7 200.459 169.892L209.308 171.047H232.392C233.546 171.047 234.7 170.085 234.7 168.738V161.619C234.7 160.464 233.738 159.31 232.392 159.31H209.308Z" fill="#0FC2E8"/>
<path d="M232.777 159.503V165.275C232.777 166.429 231.815 167.584 230.468 167.584H207.384L198.727 166.429V168.354C198.727 169.316 199.305 169.893 200.266 170.085L209.115 171.24H232.199C233.354 171.24 234.508 170.278 234.508 168.931V161.619C234.7 160.465 233.931 159.695 232.777 159.503Z" fill="#1B4D5F"/>
<path d="M177.759 167.968H168.333C166.794 167.968 165.64 166.814 165.64 165.275C165.64 163.735 166.794 162.581 168.333 162.581H177.759V167.968Z" fill="#7A7C82"/>
<path d="M150.635 164.89H113.893V167.968H150.635V164.89Z" fill="#FFCB25"/>
<path d="M601.161 348.251V389.425C601.161 392.311 598.853 394.62 595.967 394.62H417.065C414.372 394.62 412.064 392.503 411.871 389.81C411.871 389.617 411.871 389.617 411.871 389.425V348.251C411.871 345.365 414.18 343.056 417.065 343.056H595.967C598.853 343.056 601.161 345.365 601.161 348.251Z" fill="#090B20"/>
<path d="M595.39 343.056C595.39 343.056 594.044 345.172 594.044 348.635L425.145 354.023V386.154L411.871 389.617C411.871 389.425 411.871 389.425 411.871 389.233V348.251C411.871 345.365 414.18 343.056 417.065 343.056H595.39Z" fill="#1D879E"/>
<path d="M416.873 391.349C415.719 391.349 414.949 390.387 414.949 389.425V348.251C414.949 347.097 415.911 346.327 416.873 346.327H595.775C596.929 346.327 597.699 347.289 597.699 348.251V389.425C597.699 390.58 596.737 391.349 595.775 391.349H416.873Z" fill="#0FC2E8"/>
<path d="M512.865 360.757V364.413V365.375L513.634 365.759L515.558 366.914V370.762L513.634 371.916L512.865 372.301V373.263V376.919H429.762V360.757H512.865ZM514.404 359.025H428.03V378.266H514.404V373.263L517.097 371.724V366.144L514.404 364.605V359.025Z" fill="#16A8C7"/>
<path d="M581.155 363.451C584.041 363.451 586.349 365.76 586.349 368.646C586.349 371.532 584.041 373.841 581.155 373.841C578.27 373.841 575.961 371.532 575.961 368.646C575.961 365.952 578.27 363.451 581.155 363.451ZM581.155 361.911C577.308 361.911 574.23 364.99 574.23 368.838C574.23 372.686 577.308 375.765 581.155 375.765C585.003 375.765 588.08 372.686 588.08 368.838C588.08 364.99 585.003 361.911 581.155 361.911Z" fill="white"/>
<path d="M569.036 368.838C569.036 372.686 565.958 375.765 562.111 375.765C558.263 375.765 555.185 372.686 555.185 368.838C555.185 364.99 558.263 361.911 562.111 361.911C565.958 361.911 569.036 364.99 569.036 368.838Z" fill="#1B4D5F"/>
<path d="M537.488 368.838C537.488 370.377 536.333 371.532 534.795 371.532C533.256 371.532 532.101 370.377 532.101 368.838C532.101 367.299 533.256 366.145 534.795 366.145C536.333 365.952 537.488 367.299 537.488 368.838Z" fill="#FFCB25"/>
<g opacity="0.4">
<g opacity="0.4">
<path opacity="0.4" d="M601.161 374.418V389.233C601.161 392.119 598.853 394.427 595.967 394.427H417.065C414.372 394.427 412.064 392.311 411.871 389.617C411.871 389.425 411.871 389.425 411.871 389.233V374.225C441.304 375.764 545.375 380.767 601.161 374.418Z" fill="#26657B"/>
</g>
</g>
<path d="M593.659 352.676H593.082C592.12 352.676 591.543 351.907 591.543 351.137C591.543 350.175 592.313 349.598 593.082 349.598H593.659C594.621 349.598 595.198 350.367 595.198 351.137C595.198 351.907 594.429 352.676 593.659 352.676Z" fill="white"/>
<path d="M586.349 352.676H579.616C578.654 352.676 578.077 351.907 578.077 351.137C578.077 350.175 578.847 349.598 579.616 349.598H586.349C587.311 349.598 587.888 350.367 587.888 351.137C588.08 351.907 587.311 352.676 586.349 352.676Z" fill="white"/>
<path d="M571.921 352.676H420.143C419.181 352.676 418.604 351.907 418.604 351.137C418.604 350.175 419.373 349.598 420.143 349.598H571.921C572.883 349.598 573.46 350.367 573.46 351.137C573.46 351.907 572.691 352.676 571.921 352.676Z" fill="white"/>
<path d="M334.732 113.711V123.908H308.954H267.211V113.711L234.316 132.759L267.403 151.614L267.211 141.417H292.988H334.732V151.614L367.627 132.566L334.732 113.711Z" fill="#0990B9"/>
<path d="M405.908 311.309C405.908 328.433 419.758 342.286 436.879 342.286H572.883C590.004 342.286 603.855 328.433 603.855 311.309V30.977C603.855 13.8531 590.004 0 572.883 0H436.879C419.758 0 405.908 13.8531 405.908 30.977V311.309Z" fill="#DEE4F7"/>
<path d="M474.391 18.4707C474.391 19.8175 475.545 20.972 476.892 20.972H528.639C529.985 20.972 531.14 19.8175 531.14 18.4707V16.3543C531.14 15.0075 529.985 13.853 528.639 13.853H476.892C475.545 13.853 474.391 15.0075 474.391 16.3543V18.4707Z" fill="#C6CEE7"/>
<path d="M515.365 319.583H489.588V335.167H515.365V319.583Z" fill="#C6CEE6"/>
<path d="M597.798 32.0374H411.98V63.0069H597.798V32.0374Z" fill="#C6CEE6"/>
<path d="M584.982 51.26H423.727V311.831H584.982V51.26Z" fill="url(#paint1_linear)"/>
<path d="M597.798 44.8523H584.983V311.831H597.798V44.8523Z" fill="#C6CEE6"/>
<path d="M424.795 46.988H411.98V311.831H424.795V46.988Z" fill="#C6CEE6"/>
<path d="M532.679 203.948C507.286 203.948 486.703 224.535 486.703 249.932C486.703 275.33 507.286 295.917 532.679 295.917C558.071 295.917 578.655 275.33 578.655 249.932C578.655 224.343 558.071 203.948 532.679 203.948Z" fill="#0FC2E8"/>
<path d="M475.043 75.822C449.65 75.822 429.067 96.4092 429.067 121.807C429.067 147.204 449.65 167.791 475.043 167.791C500.435 167.791 521.019 147.204 521.019 121.807C521.019 96.4092 500.435 75.822 475.043 75.822Z" fill="#0FC2E8"/>
<path d="M449.576 128.718H445.921C444.382 128.718 443.035 130.065 442.843 131.604V151.229C442.843 152.768 444.189 154.115 445.728 154.308H449.383C450.922 154.308 452.269 152.961 452.461 151.422V131.796C452.653 130.065 451.307 128.718 449.576 128.718Z" fill="white"/>
<path d="M492.666 124.87H457.463C455.924 124.87 454.577 126.217 454.577 127.756V162.196C458.232 163.928 465.542 167.006 475.161 167.006C484.779 167.006 492.089 163.928 495.744 162.196V127.948C495.552 126.217 494.205 125.062 492.666 124.87Z" fill="white"/>
<path d="M504.208 128.718H500.553C499.014 128.718 497.667 130.065 497.475 131.604V151.229C497.475 152.768 498.822 154.115 500.361 154.308H504.016C505.555 154.308 506.901 152.961 507.094 151.422V131.796C507.094 130.257 505.939 128.91 504.4 128.718C504.4 128.718 504.4 128.718 504.208 128.718Z" fill="white"/>
<path d="M475.738 91.1992C477.469 91.1992 478.815 92.546 478.815 94.2777C478.815 96.0093 477.469 97.3561 475.738 97.3561C474.006 97.3561 472.66 96.0093 472.66 94.2777C472.852 92.546 474.199 91.1992 475.738 91.1992Z" fill="white"/>
<path d="M456.885 122.946H492.089C493.628 122.946 494.974 121.599 494.974 120.06V105.437C494.974 103.898 493.628 102.551 492.089 102.359H456.885C455.346 102.359 454 103.706 454 105.245V119.868C453.808 121.599 455.154 122.946 456.885 122.946ZM484.009 108.131C486.702 108.131 488.819 110.247 489.011 112.941C489.011 115.635 486.895 117.751 484.202 117.944C481.509 117.944 479.393 115.827 479.2 113.133C479.008 110.247 481.124 108.131 484.009 108.131C483.817 108.131 483.817 108.131 484.009 108.131ZM465.157 108.131C467.85 108.131 469.966 110.247 470.159 112.941C470.159 115.635 468.043 117.751 465.35 117.944C462.656 117.944 460.54 115.827 460.348 113.133C460.156 110.632 462.272 108.323 464.965 108.323C464.965 108.131 465.157 108.131 465.157 108.131Z" fill="white"/>
<path d="M642.521 46.988H557.879C549.414 46.988 542.682 53.7222 542.682 62.1879V87.3928V89.7017V95.2814L529.216 108.365L559.418 104.709H642.713C651.177 104.709 657.91 97.975 657.91 89.5093V62.1879C657.718 53.9146 650.792 46.988 642.521 46.988Z" fill="#FFCB25"/>
<path d="M643.098 58.917H558.264V61.803H643.098V58.917Z" fill="white"/>
<path d="M643.098 66.8057H558.264V69.6917H643.098V66.8057Z" fill="white"/>
<path d="M643.098 74.6943H558.264V77.5804H643.098V74.6943Z" fill="white"/>
<path d="M643.098 82.5825H558.264V85.4686H643.098V82.5825Z" fill="white"/>
<path d="M643.098 90.2791H558.264V93.1651H643.098V90.2791Z" fill="white"/>
<path d="M363.202 191.442H446.882C455.154 191.442 461.887 198.176 461.887 206.449V231.269V233.386V238.966L475.353 251.857L445.536 248.393H363.202C354.93 248.393 348.198 241.659 348.198 233.386V206.257C348.198 198.176 354.93 191.442 363.202 191.442Z" fill="#FFCB25"/>
<path d="M446.498 203.178H362.625V206.065H446.498V203.178Z" fill="white"/>
<path d="M446.498 210.875H362.625V213.761H446.498V210.875Z" fill="white"/>
<path d="M446.498 218.571H362.625V221.457H446.498V218.571Z" fill="white"/>
<path d="M446.498 226.459H362.625V229.345H446.498V226.459Z" fill="white"/>
<path d="M446.498 234.155H362.625V237.041H446.498V234.155Z" fill="white"/>
<path d="M504.016 277.254L504.4 285.912C512.095 292.069 521.906 295.724 532.678 295.724V264.17L504.016 277.254Z" fill="#1D161E"/>
<path d="M532.678 263.978V295.532C543.259 295.532 553.069 291.877 560.957 285.72L561.341 277.061L532.678 263.978Z" fill="#1D161E"/>
<path d="M518.058 270.52L527.292 295.532C529.023 295.724 530.755 295.917 532.486 295.917C534.217 295.917 535.949 295.724 537.68 295.532L546.914 270.52H518.058Z" fill="#F3F2EF"/>
<path d="M530.178 283.411H532.678H535.179L537.488 276.677H527.869L530.178 283.411Z" fill="#F91737"/>
<path d="M530.562 283.218L529.023 295.532C530.178 295.532 531.332 295.724 532.678 295.724C533.833 295.724 535.179 295.725 536.333 295.532L534.794 283.218H530.562Z" fill="#F91737"/>
<path d="M539.027 261.092H526.523V271.097H539.027V261.092Z" fill="#F6AF84"/>
<path d="M517.481 234.732C514.019 234.732 511.133 237.618 511.133 241.082C511.133 244.545 514.019 247.431 517.481 247.431C520.944 247.431 523.83 244.545 523.83 241.082C523.83 237.618 520.944 234.732 517.481 234.732Z" fill="#F6AF84"/>
<path d="M517.481 238.388C515.942 238.388 514.788 239.543 514.788 241.082C514.788 242.621 515.942 243.775 517.481 243.775C519.02 243.775 520.174 242.621 520.174 241.082C520.174 239.543 518.828 238.388 517.481 238.388Z" fill="#E08749"/>
<path d="M526.523 263.978C526.523 263.978 529.216 265.325 532.678 265.325C536.141 265.325 538.834 263.978 538.834 263.978V261.285H526.33V263.978H526.523Z" fill="#E08749"/>
<path d="M547.876 234.732C544.413 234.732 541.527 237.618 541.527 241.082C541.527 244.545 544.413 247.431 547.876 247.431C551.338 247.431 554.224 244.545 554.224 241.082C554.416 237.618 551.531 234.732 547.876 234.732Z" fill="#F6AF84"/>
<path d="M547.875 238.388C546.337 238.388 545.182 239.543 545.182 241.082C545.182 242.621 546.337 243.775 547.875 243.775C549.414 243.775 550.569 242.621 550.569 241.082C550.761 239.543 549.414 238.388 547.875 238.388Z" fill="#E08749"/>
<path d="M548.26 234.348V229.538C548.26 220.879 541.143 213.76 532.486 213.76C523.83 213.76 516.712 220.879 516.712 229.538V234.348V234.733C516.712 235.31 516.712 235.695 516.712 236.272V247.046C516.712 255.705 523.637 262.631 532.294 262.631H532.486C541.143 262.631 548.068 255.705 548.068 247.046V236.272C548.453 235.695 548.453 235.117 548.26 234.348Z" fill="#F6AF84"/>
<path d="M529.023 230.692C525.753 228.191 522.291 229.923 520.944 231.077C520.559 231.462 520.559 231.847 520.944 232.232C521.136 232.424 521.329 232.424 521.521 232.424C521.714 232.424 521.906 232.424 522.098 232.232C522.291 232.039 524.984 229.538 528.062 231.847C528.446 232.039 529.023 232.039 529.216 231.654C529.601 231.462 529.408 230.885 529.023 230.692Z" fill="#2F120A"/>
<path d="M537.103 230.692C536.718 230.884 536.718 231.462 536.911 231.846C537.103 232.231 537.68 232.231 538.065 232.039C540.95 229.73 543.836 232.231 544.028 232.424C544.221 232.616 544.413 232.616 544.605 232.616C544.798 232.616 544.99 232.616 545.182 232.424C545.567 232.039 545.567 231.654 545.182 231.269C543.836 229.73 540.373 227.998 537.103 230.692Z" fill="#2F120A"/>
<path d="M527.677 249.74C529.024 249.933 530.755 250.125 532.486 250.125C534.41 250.125 536.141 249.933 537.68 249.74C537.68 252.626 535.179 254.935 532.486 254.743C529.793 254.743 527.677 252.434 527.677 249.74Z" fill="white"/>
<path d="M518.058 270.52L527.869 276.677L532.678 273.021V270.712L526.523 265.133L518.058 270.52Z" fill="white"/>
<path d="M532.678 270.712V273.021L537.488 276.677L547.106 270.52L538.834 265.133L532.678 270.712Z" fill="white"/>
<path d="M513.634 288.029L521.906 292.261L521.521 294.185C523.445 294.57 525.369 294.955 527.292 295.147L518.059 270.327L513.634 288.029Z" fill="#2D2132"/>
<path d="M551.723 288.028L547.298 270.52L538.065 295.34C539.989 295.147 541.912 294.762 543.836 294.378L543.451 292.454L551.723 288.028Z" fill="#2D2132"/>
<path d="M509.787 279.755L515.365 282.256L504.016 277.254C503.823 277.638 503.054 279.562 501.707 283.603C504.978 286.489 508.44 288.99 512.48 290.914C514.211 285.142 515.365 282.256 515.365 282.256L509.787 279.755Z" fill="#1D161E"/>
<path d="M561.341 277.254L549.992 282.256C549.992 282.256 551.338 285.142 552.877 290.914C556.725 288.99 560.38 286.489 563.65 283.603C562.303 279.562 561.341 277.446 561.341 277.254Z" fill="#1D161E"/>
<path d="M548.645 212.029C548.26 212.029 548.068 212.221 547.683 212.221H547.491C547.106 212.221 546.914 212.221 546.529 212.221C544.798 212.221 543.066 211.836 541.527 211.067C537.488 208.95 532.486 210.105 529.793 213.953C528.062 213.76 526.523 213.183 524.984 212.413C522.291 210.682 519.02 210.874 516.712 212.991C514.596 214.915 513.442 217.801 513.442 220.879C513.442 221.841 513.634 222.803 514.019 223.765L515.365 235.117H517.097C517.289 233.77 517.674 227.806 518.443 224.727C529.793 226.651 536.526 226.651 547.491 224.92C548.068 227.228 548.26 232.423 547.683 235.117H549.992C551.531 231.654 554.416 223.38 552.108 210.874C550.953 211.451 549.799 211.836 548.645 212.029Z" fill="#2F120A"/>
<path d="M540.758 212.606C539.027 214.915 536.911 220.494 536.718 226.074C538.065 226.074 539.219 225.882 540.566 225.689C540.95 219.148 544.413 213.568 546.529 212.221C544.99 212.221 543.451 211.836 542.105 211.067C541.72 211.644 541.335 212.029 540.758 212.606Z" fill="#441709"/>
<path d="M524.791 212.029C524.599 211.836 524.407 211.836 524.214 211.836C524.214 211.836 524.214 211.836 524.022 211.836C523.83 211.836 523.637 211.644 523.445 211.644C523.253 211.644 523.06 211.452 522.868 211.452C522.675 211.644 522.483 212.029 522.098 212.221C520.752 213.953 519.79 219.917 519.79 224.92C520.752 225.112 521.714 225.305 522.483 225.305C522.291 219.917 524.022 213.761 525.369 212.414C525.176 212.414 525.176 212.221 524.984 212.221C525.176 212.221 524.984 212.221 524.791 212.029Z" fill="#441709"/>
<path d="M526.523 237.619C526.523 238.773 525.945 239.735 525.176 239.735C524.406 239.735 523.829 238.773 523.829 237.619C523.829 236.464 524.406 235.502 525.176 235.502C525.753 235.502 526.523 236.464 526.523 237.619Z" fill="#090B1D"/>
<path d="M542.104 237.619C542.104 238.773 541.527 239.735 540.758 239.735C539.988 239.735 539.411 238.773 539.411 237.619C539.411 236.464 539.988 235.502 540.758 235.502C541.527 235.502 542.104 236.464 542.104 237.619Z" fill="#090B1D"/>
<path d="M532.294 234.925C533.256 238.773 532.486 240.697 531.717 241.851C530.755 243.198 529.216 243.583 529.216 244.737C529.216 245.699 530.562 246.661 531.909 246.469C532.486 246.277 532.871 246.084 533.063 245.892" stroke="#E18862" stroke-miterlimit="10"/>
<defs>
<linearGradient id="paint0_linear" x1="0.581054" y1="394.261" x2="300.543" y2="394.261" gradientUnits="userSpaceOnUse">
<stop stop-color="#1F6F8B"/>
<stop offset="1" stop-color="#2A7691"/>
</linearGradient>
<linearGradient id="paint1_linear" x1="504.492" y1="311.688" x2="504.492" y2="51.1987" gradientUnits="userSpaceOnUse">
<stop stop-color="#090B1D"/>
<stop offset="0.1523" stop-color="#0D152D"/>
<stop offset="0.434" stop-color="#162B4E"/>
<stop offset="0.6795" stop-color="#1E416D"/>
<stop offset="0.8763" stop-color="#245183"/>
<stop offset="1" stop-color="#27588B"/>
</linearGradient>
</defs>
</svg>
